<?xml version="1.0" standalone="no"?>
<!DOCTYPE svg PUBLIC "-//W3C//DTD SVG 20010904//EN"
 "http://www.w3.org/TR/2001/REC-SVG-20010904/DTD/svg10.dtd">
<svg version="1.0" xmlns="http://www.w3.org/2000/svg"
 width="1024.000000pt" height="1024.000000pt" viewBox="0 0 1024.000000 1024.000000"
 preserveAspectRatio="xMidYMid meet">
<metadata>
Created by potrace 1.14, written by Peter Selinger 2001-2017
</metadata>
<g transform="translate(0.000000,1024.000000) scale(0.100000,-0.100000)"
fill="#000000" stroke="none">
<path d="M4730 10229 c-1074 -85 -2076 -495 -2910 -1190 -160 -133 -486 -459
-619 -619 -701 -841 -1107 -1841 -1191 -2929 -13 -173 -13 -569 0 -742 84
-1088 490 -2088 1191 -2929 133 -160 459 -486 619 -619 841 -701 1841 -1107
2929 -1191 173 -13 569 -13 742 0 1088 84 2088 490 2929 1191 160 133 486 459
619 619 701 841 1107 1841 1191 2929 13 173 13 569 0 742 -84 1088 -490 2088
-1191 2929 -133 160 -459 486 -619 619 -841 701 -1841 1107 -2929 1191 -156
12 -607 11 -761 -1z m2510 -4874 l0 -1165 -240 0 -240 0 0 1165 0 1165 240 0
240 0 0 -1165z m-4610 845 l0 -200 -390 0 -390 0 0 -275 0 -275 355 0 355 0 0
-200 0 -200 -355 0 -355 0 0 -430 0 -430 -250 0 -250 0 0 1105 0 1105 640 0
640 0 0 -200z m1216 -400 c121 -15 189 -35 294 -87 126 -61 245 -177 307 -299
74 -142 88 -210 87 -424 0 -171 -2 -192 -27 -273 -108 -352 -361 -540 -761
-563 -183 -11 -346 19 -491 91 -202 99 -330 262 -387 490 -31 127 -31 351 0
478 52 212 164 367 339 473 165 99 409 143 639 114z m4715 -19 c200 -51 350
-181 429 -368 47 -111 60 -191 67 -390 l6 -183 -517 0 c-415 0 -516 -3 -516
-13 0 -7 7 -40 15 -72 39 -149 147 -232 332 -256 154 -19 336 12 475 82 32 16
60 29 63 29 3 0 5 -77 5 -171 l0 -170 -62 -28 c-192 -87 -533 -114 -754 -61
-321 76 -508 304 -545 662 -21 202 7 381 88 548 40 82 59 107 142 190 129 129
254 193 426 221 78 12 261 2 346 -20z m-3249 -523 c4 -567 5 -573 70 -653 113
-136 359 -101 443 64 41 82 45 139 45 633 l0 468 240 0 240 0 0 -790 0 -790
-240 0 -240 0 -1 123 0 122 -32 -40 c-140 -177 -304 -255 -508 -241 -255 17
-404 143 -471 399 -21 78 -22 107 -25 650 l-4 567 240 0 240 0 3 -512z"/>
<path d="M3599 5427 c-108 -31 -187 -104 -228 -213 -28 -74 -44 -205 -36 -299
18 -200 77 -305 204 -363 48 -23 70 -26 156 -26 125 -1 184 22 250 96 78 87
111 222 102 413 -9 199 -63 307 -180 365 -76 37 -190 49 -268 27z"/>
<path d="M8219 5452 c-89 -46 -162 -155 -184 -275 l-7 -37 292 0 293 0 -6 63
c-10 111 -49 192 -112 236 -75 51 -193 57 -276 13z"/>
</g>
</svg>
